# xmcd
#
# Track frame offsets:
#	150
#	15781
#	48883
#	62191
#	81867
#	100557
#	126294
#	138448
#	156538
#	172924
#	190797
#
# Disc length: 2937 seconds
#
# Revision: 1
# Processed by: cddbd v1.5.2PL0 Copyright (c) Steve Scherf et al.
# Submitted via: audiograbber 1.83.01
#
DISCID=840b770b
DTITLE=Krausberry - Zive v Malostranske besede 1
DYEAR=1900
DGENRE=
TTITLE0=Na vetvi
TTITLE1=Horoskop
TTITLE2=Bazar zastavarna
TTITLE3=Na peknu notecku
TTITLE4=Nalada
TTITLE5=Stary casy
TTITLE6=Nerikej mi baby
TTITLE7=Mejdlo
TTITLE8=Ptaci
TTITLE9=Tahne mi na 40
TTITLE10=Nas kluk
EXTD=
EXTT0=
EXTT1=
EXTT2=
EXTT3=
EXTT4=
EXTT5=
EXTT6=
EXTT7=
EXTT8=
EXTT9=
EXTT10=
PLAYORDER=
